<mxfile host="app.diagrams.net" modified="2020-10-18T14:43:42.002Z" agent="5.0 (Windows NT 10.0; Win64; x64) AppleWebKit/537.36 (KHTML, like Gecko) Chrome/86.0.4240.75 Safari/537.36" etag="xpzPWREakCKk0dN4wmEz" version="13.8.0" type="github">
  <diagram id="C5RBs43oDa-KdzZeNtuy" name="Page-1">
    <mxGraphModel dx="798" dy="490" grid="1" gridSize="10" guides="1" tooltips="1" connect="1" arrows="1" fold="1" page="1" pageScale="1" pageWidth="827" pageHeight="1169" math="0" shadow="0">
      <root>
        <mxCell id="WIyWlLk6GJQsqaUBKTNV-0" />
        <mxCell id="WIyWlLk6GJQsqaUBKTNV-1" parent="WIyWlLk6GJQsqaUBKTNV-0" />
        <mxCell id="OFO5cK3eKzZXRRzc6HM6-1" value="" style="edgeStyle=orthogonalEdgeStyle;rounded=0;orthogonalLoop=1;jettySize=auto;html=1;" edge="1" parent="WIyWlLk6GJQsqaUBKTNV-1" source="WIyWlLk6GJQsqaUBKTNV-3" target="OFO5cK3eKzZXRRzc6HM6-0">
          <mxGeometry relative="1" as="geometry" />
        </mxCell>
        <mxCell id="WIyWlLk6GJQsqaUBKTNV-3" value="购买商品" style="rounded=1;whiteSpace=wrap;html=1;fontSize=12;glass=0;strokeWidth=1;shadow=0;" parent="WIyWlLk6GJQsqaUBKTNV-1" vertex="1">
          <mxGeometry x="160" y="80" width="120" height="60" as="geometry" />
        </mxCell>
        <mxCell id="OFO5cK3eKzZXRRzc6HM6-5" value="" style="edgeStyle=orthogonalEdgeStyle;rounded=0;orthogonalLoop=1;jettySize=auto;html=1;" edge="1" parent="WIyWlLk6GJQsqaUBKTNV-1" source="OFO5cK3eKzZXRRzc6HM6-0" target="OFO5cK3eKzZXRRzc6HM6-4">
          <mxGeometry relative="1" as="geometry" />
        </mxCell>
        <mxCell id="OFO5cK3eKzZXRRzc6HM6-0" value="管理已购买的商品" style="rounded=1;whiteSpace=wrap;html=1;fontSize=12;glass=0;strokeWidth=1;shadow=0;" vertex="1" parent="WIyWlLk6GJQsqaUBKTNV-1">
          <mxGeometry x="940" y="80" width="120" height="60" as="geometry" />
        </mxCell>
        <mxCell id="OFO5cK3eKzZXRRzc6HM6-4" value="查看账单" style="rounded=1;whiteSpace=wrap;html=1;fontSize=12;glass=0;strokeWidth=1;shadow=0;" vertex="1" parent="WIyWlLk6GJQsqaUBKTNV-1">
          <mxGeometry x="1140" y="80" width="120" height="60" as="geometry" />
        </mxCell>
        <mxCell id="OFO5cK3eKzZXRRzc6HM6-10" value="" style="edgeStyle=orthogonalEdgeStyle;rounded=0;orthogonalLoop=1;jettySize=auto;html=1;" edge="1" parent="WIyWlLk6GJQsqaUBKTNV-1" source="OFO5cK3eKzZXRRzc6HM6-8" target="OFO5cK3eKzZXRRzc6HM6-9">
          <mxGeometry relative="1" as="geometry" />
        </mxCell>
        <mxCell id="OFO5cK3eKzZXRRzc6HM6-8" value="新增商品" style="rounded=1;whiteSpace=wrap;html=1;" vertex="1" parent="WIyWlLk6GJQsqaUBKTNV-1">
          <mxGeometry x="160" y="190" width="120" height="60" as="geometry" />
        </mxCell>
        <mxCell id="OFO5cK3eKzZXRRzc6HM6-12" value="" style="edgeStyle=orthogonalEdgeStyle;rounded=0;orthogonalLoop=1;jettySize=auto;html=1;" edge="1" parent="WIyWlLk6GJQsqaUBKTNV-1" source="OFO5cK3eKzZXRRzc6HM6-9" target="OFO5cK3eKzZXRRzc6HM6-11">
          <mxGeometry relative="1" as="geometry" />
        </mxCell>
        <mxCell id="OFO5cK3eKzZXRRzc6HM6-9" value="选择商品" style="rounded=1;whiteSpace=wrap;html=1;" vertex="1" parent="WIyWlLk6GJQsqaUBKTNV-1">
          <mxGeometry x="360" y="190" width="120" height="60" as="geometry" />
        </mxCell>
        <mxCell id="OFO5cK3eKzZXRRzc6HM6-14" value="" style="edgeStyle=orthogonalEdgeStyle;rounded=0;orthogonalLoop=1;jettySize=auto;html=1;" edge="1" parent="WIyWlLk6GJQsqaUBKTNV-1" source="OFO5cK3eKzZXRRzc6HM6-11" target="OFO5cK3eKzZXRRzc6HM6-13">
          <mxGeometry relative="1" as="geometry" />
        </mxCell>
        <mxCell id="OFO5cK3eKzZXRRzc6HM6-11" value="支付" style="rounded=1;whiteSpace=wrap;html=1;" vertex="1" parent="WIyWlLk6GJQsqaUBKTNV-1">
          <mxGeometry x="560" y="190" width="120" height="60" as="geometry" />
        </mxCell>
        <mxCell id="OFO5cK3eKzZXRRzc6HM6-13" value="完成下单" style="rounded=1;whiteSpace=wrap;html=1;" vertex="1" parent="WIyWlLk6GJQsqaUBKTNV-1">
          <mxGeometry x="760" y="190" width="120" height="60" as="geometry" />
        </mxCell>
        <mxCell id="OFO5cK3eKzZXRRzc6HM6-21" value="查看已购买的商品" style="rounded=1;whiteSpace=wrap;html=1;fontSize=12;glass=0;strokeWidth=1;shadow=0;" vertex="1" parent="WIyWlLk6GJQsqaUBKTNV-1">
          <mxGeometry x="940" y="190" width="120" height="60" as="geometry" />
        </mxCell>
        <mxCell id="OFO5cK3eKzZXRRzc6HM6-22" value="查看历史账单" style="rounded=1;whiteSpace=wrap;html=1;fontSize=12;glass=0;strokeWidth=1;shadow=0;" vertex="1" parent="WIyWlLk6GJQsqaUBKTNV-1">
          <mxGeometry x="1140" y="190" width="120" height="60" as="geometry" />
        </mxCell>
        <mxCell id="OFO5cK3eKzZXRRzc6HM6-25" value="在billing那边查看&lt;br&gt;Console中添加一个入口即可" style="text;html=1;align=center;verticalAlign=middle;resizable=0;points=[];autosize=1;" vertex="1" parent="WIyWlLk6GJQsqaUBKTNV-1">
          <mxGeometry x="1115" y="40" width="170" height="30" as="geometry" />
        </mxCell>
        <mxCell id="OFO5cK3eKzZXRRzc6HM6-26" value="针对用户误操作&lt;br&gt;可以在运营后台中删除客户购买的某个商品" style="whiteSpace=wrap;html=1;" vertex="1" parent="WIyWlLk6GJQsqaUBKTNV-1">
          <mxGeometry x="170" y="720" width="120" height="60" as="geometry" />
        </mxCell>
        <mxCell id="OFO5cK3eKzZXRRzc6HM6-27" value="运营平台" style="text;html=1;align=center;verticalAlign=middle;resizable=0;points=[];autosize=1;" vertex="1" parent="WIyWlLk6GJQsqaUBKTNV-1">
          <mxGeometry x="180" y="650" width="60" height="20" as="geometry" />
        </mxCell>
      </root>
    </mxGraphModel>
  </diagram>
</mxfile>
